<svg width="50" height="50" viewBox="0 0 50 50" fill="none" xmlns="http://www.w3.org/2000/svg">
<path d="M45.1447 6.96571C41.3054 2.96571 34.7064 1 25.012 1C15.3176 1 8.71861 2.94286 4.87923 6.96571C2.02369 9.91429 0.751898 13.9829 1.03985 19.0571C1.3518 24.3371 2.35964 29.3429 4.06336 33.96C5.40715 37.64 7.15886 41 9.24653 43.9257C11.6461 47.2857 13.9498 49 16.1094 49C17.3572 49 19.1329 48.4057 20.4767 45.5714C21.9885 42.3943 23.6202 40.5657 24.988 40.5657C26.3558 40.5657 27.9875 42.3943 29.4993 45.5714C30.8431 48.4057 32.6188 49 33.8666 49C36.0262 49 38.3298 47.2857 40.7295 43.9257C42.8171 41 44.5688 37.64 45.9366 33.9371C47.6403 29.32 48.6482 24.3143 48.9601 19.0343C49.2481 13.9829 47.9763 9.91429 45.1447 6.96571ZM25.012 3.12571C27.9875 3.12571 30.6511 3.30857 33.0027 3.69714C37.058 4.90857 39.8176 6.89714 40.2255 8.90857C40.4415 9.96 39.9616 10.9657 38.7858 11.9029C37.7299 12.7486 36.5061 13.16 34.9944 13.16C32.1388 13.16 28.8274 11.7429 25.2999 10.2571C22.6124 9.11429 19.8288 7.94857 17.1653 7.4C15.7255 7.12571 14.3337 6.96571 12.9899 6.96571C10.3983 6.96571 8.09471 7.53714 6.24701 8.61143C6.295 8.56571 6.36699 8.49714 6.41499 8.42857C9.84643 4.86286 15.9175 3.12571 25.012 3.12571ZM18.557 44.68C17.8611 46.1429 17.0453 46.8971 16.1334 46.8971C14.7896 46.8971 12.9179 45.3886 11.0222 42.7371C5.76709 35.1714 3.8714 25.0457 6.67894 19.6971C7.51881 18.0971 9.03056 17.1371 10.7343 17.1371C12.726 17.1371 16.0134 18.3714 20.2608 24.2C23.3803 28.4514 24.94 33.1143 26.4278 37.6171C26.5717 38.0514 26.7157 38.5086 26.8597 38.9429C26.2358 38.6229 25.6119 38.4629 24.964 38.4629C22.6844 38.4629 20.5007 40.5657 18.557 44.68ZM46.8005 18.9429C46.0806 31.1029 41.5933 39.0571 38.9777 42.7371C37.082 45.3886 35.2103 46.8971 33.8666 46.8971C32.9547 46.8971 32.1388 46.1429 31.443 44.68C31.395 44.5657 31.347 44.4743 31.299 44.36C30.1952 42.0971 29.3793 39.6057 28.4914 36.9543C26.9317 32.2914 25.3239 27.4686 22.0125 22.9657C17.2132 16.4057 13.2299 15.0343 10.7343 15.0343C8.21469 15.0343 5.98306 16.4057 4.78325 18.7371C4.18335 19.8343 3.77541 21.1143 3.53545 22.5314C3.39147 21.3886 3.27149 20.2 3.1995 18.9657C3.15151 15.8343 4.01537 13.3886 5.74309 11.6743C7.42282 9.98286 9.94242 9.09143 12.9899 9.09143C14.1657 9.09143 15.4375 9.22857 16.7333 9.50286C19.1809 9.98286 21.8445 11.1257 24.4361 12.2229C28.0115 13.7314 31.7069 15.2857 34.9944 15.2857C36.9861 15.2857 38.7138 14.7143 40.1536 13.5486C41.9293 12.1086 42.6971 10.3257 42.3372 8.49714C42.2172 7.92571 41.9773 7.35429 41.6413 6.78286C42.3612 7.28572 43.0091 7.81143 43.585 8.40571C46.0086 10.9657 47.0644 14.4171 46.8005 18.9429Z" fill="white" stroke="white" stroke-width="0.25" stroke-miterlimit="10"/>
</svg>
